<svg id="Capa_1" data-name="Capa 1" xmlns="http://www.w3.org/2000/svg" xmlns:xlink="http://www.w3.org/1999/xlink" viewBox="0 0 52 52"><defs><style>.cls-1{fill:url(#Degradado_sin_nombre_28);}.cls-2{fill:url(#Degradado_sin_nombre_28-2);}</style><linearGradient id="Degradado_sin_nombre_28" x1="32" y1="61" x2="32" y2="6.44" gradientTransform="matrix(1, 0, 0, -1, 0, 66)" gradientUnits="userSpaceOnUse"><stop offset="0.43" stop-color="#00d6e6"/><stop offset="1" stop-color="#004ea3"/></linearGradient><linearGradient id="Degradado_sin_nombre_28-2" y1="44.17" y2="21.91" xlink:href="#Degradado_sin_nombre_28"/></defs><title>approval</title><g id="surface1"><path class="cls-1" d="M32,58a5.94,5.94,0,0,1-4.69-2.29,6.09,6.09,0,0,1-5.26.31,6,6,0,0,1-3.46-3.91,6.07,6.07,0,0,1-5-1.73,5.94,5.94,0,0,1-1.69-4.93A6.1,6.1,0,0,1,8,42a5.93,5.93,0,0,1,.32-5.21A6.09,6.09,0,0,1,6,32a5.94,5.94,0,0,1,2.29-4.69A6.05,6.05,0,0,1,8,22.05a6,6,0,0,1,3.91-3.46,6.12,6.12,0,0,1,1.72-5,6,6,0,0,1,4.94-1.69A6.1,6.1,0,0,1,22.05,8a5.93,5.93,0,0,1,5.21.32A6.09,6.09,0,0,1,32,6a5.94,5.94,0,0,1,4.69,2.29A6.09,6.09,0,0,1,42,8a6,6,0,0,1,3.46,3.91,6.08,6.08,0,0,1,5,1.73,5.94,5.94,0,0,1,1.69,4.93A6.1,6.1,0,0,1,56,22.05a5.93,5.93,0,0,1-.32,5.21A6.09,6.09,0,0,1,58,32a5.94,5.94,0,0,1-2.29,4.69A6.09,6.09,0,0,1,56,42a6,6,0,0,1-3.91,3.46,6.1,6.1,0,0,1-1.73,5,5.94,5.94,0,0,1-4.93,1.69A6.1,6.1,0,0,1,42,56a5.93,5.93,0,0,1-5.21-.32A6.09,6.09,0,0,1,32,58Zm-4.72-4.31a2,2,0,0,1,1.6.78,3.95,3.95,0,0,0,6.24,0,2,2,0,0,1,2.6-.51,4,4,0,0,0,5.76-2.39,2,2,0,0,1,2.21-1.47,4,4,0,0,0,4.41-4.41,2,2,0,0,1,1.47-2.21A3.94,3.94,0,0,0,54,37.72a2,2,0,0,1,.51-2.6,3.95,3.95,0,0,0,0-6.24,2,2,0,0,1-.51-2.6,4,4,0,0,0-2.39-5.76,2,2,0,0,1-1.47-2.21,4,4,0,0,0-4.42-4.41,2,2,0,0,1-2.2-1.47A3.94,3.94,0,0,0,37.72,10a2,2,0,0,1-2.6-.51,3.95,3.95,0,0,0-6.24,0,2,2,0,0,1-2.6.51,4,4,0,0,0-5.76,2.39,2,2,0,0,1-2.21,1.47A3.93,3.93,0,0,0,15,15a4,4,0,0,0-1.13,3.28,2,2,0,0,1-1.47,2.21A3.94,3.94,0,0,0,10,26.28a2,2,0,0,1-.52,2.6,4,4,0,0,0,0,6.24,2,2,0,0,1,.51,2.6,4,4,0,0,0,2.39,5.76,2,2,0,0,1,1.47,2.2,4,4,0,0,0,4.41,4.42,2,2,0,0,1,2.21,1.47A3.95,3.95,0,0,0,26.28,54,2.13,2.13,0,0,1,27.28,53.69Z" transform="translate(-6 -6)"/><path class="cls-2" d="M28.44,40.7a4,4,0,0,1-2.83-1.17l-4.87-4.87a2,2,0,0,1,2.83-2.82L27,35.29a2,2,0,0,0,2.83,0L40.43,24.71a2,2,0,0,1,2.83,2.83l-12,12A4,4,0,0,1,28.44,40.7Z" transform="translate(-6 -6)"/></g></svg>