<?xml version="1.0" encoding="utf-8"?>
<!-- Generator: Adobe Illustrator 23.0.1, SVG Export Plug-In . SVG Version: 6.00 Build 0)  -->
<svg version="1.1" id="Capa_1" xmlns="http://www.w3.org/2000/svg" xmlns:xlink="http://www.w3.org/1999/xlink" x="0px" y="0px"
	 viewBox="0 0 64 64" style="enable-background:new 0 0 64 64;" xml:space="preserve">
<style type="text/css">
	.st0{fill:url(#SVGID_1_);}
	.st1{fill:url(#SVGID_2_);}
	.st2{fill:url(#SVGID_3_);}
</style>
<g id="surface1">
	
		<linearGradient id="SVGID_1_" gradientUnits="userSpaceOnUse" x1="32" y1="59" x2="32" y2="4.8658" gradientTransform="matrix(1 0 0 -1 0 64)">
		<stop  offset="0" style="stop-color:#FFFFFF"/>
		<stop  offset="1" style="stop-color:#E1E1E1"/>
	</linearGradient>
	<path class="st0" d="M32,58C17.7,58,6,46.3,6,32S17.7,6,32,6s26,11.7,26,26S46.3,58,32,58z M32,8C18.8,8,8,18.8,8,32s10.8,24,24,24
		s24-10.8,24-24S45.2,8,32,8z"/>
	
		<linearGradient id="SVGID_2_" gradientUnits="userSpaceOnUse" x1="32" y1="59" x2="32" y2="4.8658" gradientTransform="matrix(1 0 0 -1 0 64)">
		<stop  offset="0" style="stop-color:#FFFFFF"/>
		<stop  offset="1" style="stop-color:#E1E1E1"/>
	</linearGradient>
	<path class="st1" d="M32,52c-11,0-20-9-20-20s9-20,20-20s20,9,20,20S43,52,32,52z M32,14c-9.9,0-18,8.1-18,18s8.1,18,18,18
		s18-8.1,18-18S41.9,14,32,14z"/>
	
		<linearGradient id="SVGID_3_" gradientUnits="userSpaceOnUse" x1="32" y1="43.1667" x2="32" y2="21.3022" gradientTransform="matrix(1 0 0 -1 0 64)">
		<stop  offset="0" style="stop-color:#FFFFFF"/>
		<stop  offset="1" style="stop-color:#E1E1E1"/>
	</linearGradient>
	<path class="st2" d="M40.7,24.7l-1.4-1.4c-0.4-0.4-1.1-0.4-1.5,0L32,29.1l-5.8-5.8c-0.4-0.4-1.1-0.4-1.5,0l-1.4,1.4
		c-0.4,0.4-0.4,1.1,0,1.5l5.8,5.8l-5.8,5.8c-0.4,0.4-0.4,1.1,0,1.5l1.4,1.4c0.4,0.4,1.1,0.4,1.5,0l5.8-5.8l5.8,5.8
		c0.4,0.4,1.1,0.4,1.5,0l1.4-1.4c0.4-0.4,0.4-1.1,0-1.5L34.9,32l5.8-5.8C41.1,25.8,41.1,25.1,40.7,24.7z"/>
</g>
</svg>
