<?xml version="1.0" encoding="utf-8"?>
<!-- Generator: Adobe Illustrator 23.0.1, SVG Export Plug-In . SVG Version: 6.00 Build 0)  -->
<svg version="1.1" id="Capa_1" xmlns="http://www.w3.org/2000/svg" xmlns:xlink="http://www.w3.org/1999/xlink" x="0px" y="0px"
	 viewBox="0 0 64 64" style="enable-background:new 0 0 64 64;" xml:space="preserve">
<style type="text/css">
	.st0{fill:url(#SVGID_1_);}
	.st1{fill:url(#SVGID_2_);}
</style>
<g id="surface1">
	
		<linearGradient id="SVGID_1_" gradientUnits="userSpaceOnUse" x1="32.0003" y1="51.3364" x2="32.0003" y2="11.5781" gradientTransform="matrix(1 0 0 -1 0 64)">
		<stop  offset="0" style="stop-color:#00D6E6"/>
		<stop  offset="1" style="stop-color:#004EA3"/>
	</linearGradient>
	<path class="st0" d="M25,51c-1.3,0-2.5-0.5-3.5-1.4L6.9,35.4C6.3,34.8,6,34.1,6,33.3s0.3-1.5,0.9-2.1l2.8-2.8
		c1.2-1.1,3.1-1.1,4.2,0l10.3,10c0.4,0.4,1.1,0.4,1.4,0L50,13.9c1.1-1.2,3-1.2,4.2-0.1l2.9,2.7c0.6,0.6,0.9,1.3,0.9,2.1
		c0,0.8-0.3,1.5-0.9,2.1L28.6,49.5C27.6,50.5,26.3,51,25,51z M11.8,29.6c-0.3,0-0.5,0.1-0.7,0.3l-2.8,2.8C8.1,32.8,8,33,8,33.3
		s0.1,0.5,0.3,0.7l14.6,14.2c1.2,1.2,3.1,1.1,4.3,0l28.6-28.8c0.2-0.2,0.3-0.4,0.3-0.7s-0.1-0.5-0.3-0.7l-2.9-2.7
		c-0.4-0.4-1-0.4-1.4,0L27.1,39.8c-1.2,1.2-3.1,1.2-4.3,0l-10.3-10C12.3,29.7,12.1,29.6,11.8,29.6z"/>
	
		<linearGradient id="SVGID_2_" gradientUnits="userSpaceOnUse" x1="32.0117" y1="47.1698" x2="32.0117" y2="16.4737" gradientTransform="matrix(1 0 0 -1 0 64)">
		<stop  offset="0" style="stop-color:#00D6E6"/>
		<stop  offset="1" style="stop-color:#004EA3"/>
	</linearGradient>
	<path class="st1" d="M25,46.6c-0.5,0-1-0.2-1.4-0.5L10.3,33.6l1.4-1.5L25,44.6l27.3-27.3l1.4,1.4L26.4,46
		C26,46.4,25.5,46.6,25,46.6z"/>
</g>
</svg>
