<?xml version="1.0" encoding="utf-8"?>
<!-- Generator: Adobe Illustrator 23.0.1, SVG Export Plug-In . SVG Version: 6.00 Build 0)  -->
<svg version="1.1" id="Capa_1" xmlns="http://www.w3.org/2000/svg" xmlns:xlink="http://www.w3.org/1999/xlink" x="0px" y="0px"
	 viewBox="0 0 64 64" style="enable-background:new 0 0 64 64;" xml:space="preserve">
<style type="text/css">
	.st0{fill:url(#SVGID_1_);}
	.st1{fill:none;stroke:url(#SVGID_2_);stroke-width:2;stroke-miterlimit:10;}
</style>
<g id="surface1">
	
		<linearGradient id="SVGID_1_" gradientUnits="userSpaceOnUse" x1="32.5254" y1="49.3729" x2="32.5254" y2="9.1661" gradientTransform="matrix(1 0 0 -1 0 66)">
		<stop  offset="0.43" style="stop-color:#00D6E6"/>
		<stop  offset="1" style="stop-color:#004EA3"/>
	</linearGradient>
	<path class="st0" d="M35.5,38.9h6.7l1.1-6.8h-7.8v-3.7c0-2.8,0.9-5.4,3.6-5.4h4.3v-6c-0.8-0.1-2.3-0.3-5.3-0.3
		c-6.3,0-9.9,3.3-9.9,10.8v4.5h-6.4v6.8h6.4v17.8c1.3,0.2,2.6,0.3,3.9,0.3c1.2,0,2.4-0.1,3.5-0.3V38.9z"/>
	<linearGradient id="SVGID_2_" gradientUnits="userSpaceOnUse" x1="6" y1="32" x2="58" y2="32">
		<stop  offset="0.43" style="stop-color:#00D6E6"/>
		<stop  offset="1" style="stop-color:#004EA3"/>
	</linearGradient>
	<path class="st1" d="M57,32c0,13.8-11.2,25-25,25S7,45.8,7,32S18.2,7,32,7S57,18.2,57,32z"/>
</g>
</svg>
