<svg xmlns="http://www.w3.org/2000/svg" xmlns:xlink="http://www.w3.org/1999/xlink" viewBox="0 0 456.26 453.48"><defs><style>.cls-1{isolation:isolate;}.cls-2{fill:url(#Degradado_sin_nombre_5);}.cls-3{fill:url(#Degradado_sin_nombre_5-2);}.cls-4{fill:url(#Degradado_sin_nombre_5-3);}.cls-5{opacity:0.15;mix-blend-mode:multiply;}</style><linearGradient id="Degradado_sin_nombre_5" x1="260.31" y1="161.08" x2="279.52" y2="607.74" gradientTransform="translate(-257.09 131.45) rotate(-45)" gradientUnits="userSpaceOnUse"><stop offset="0" stop-color="#00d6e6"/><stop offset="1" stop-color="#004ea3"/></linearGradient><linearGradient id="Degradado_sin_nombre_5-2" x1="228.14" y1="145.58" x2="248.69" y2="623.43" xlink:href="#Degradado_sin_nombre_5"/><linearGradient id="Degradado_sin_nombre_5-3" x1="351.83" y1="173.07" x2="372.38" y2="650.92" xlink:href="#Degradado_sin_nombre_5"/></defs><title>Recurso 1</title><g class="cls-1"><g id="Capa_2" data-name="Capa 2"><g id="Capa_1-2" data-name="Capa 1"><path class="cls-2" d="M446.2,148.15,35.34,1.59C14.36-5.9-5.9,14.36,1.59,35.34L146.85,442.59c5.33,14.86,26.55,14.42,31.2-.71l13.55-43.76a26.42,26.42,0,0,1,43.91-10.86l7.08,7.08a15.41,15.41,0,1,0,21.79-21.79L214.85,323,178.23,286.4a15.43,15.43,0,0,1,21.82-21.82l25.1,25.11,7.91,7.9a15.17,15.17,0,0,0,10.89,4.5,15.4,15.4,0,0,0,10.89-26.29l-19.39-19.39-30-30a15.38,15.38,0,0,1-.41-21.37,3.83,3.83,0,0,1,.41-.48,15.44,15.44,0,0,1,21.82,0l30.43,30.44,106.11,106.1a15.43,15.43,0,0,0,21.81-21.82l-94.58-94.59-36.5-36.5a15.41,15.41,0,1,1,21.79-21.79l18.41,18.42,29.54,29.54.43-.13a15,15,0,0,0,2.08,2.6l8.67,8.68a15.43,15.43,0,0,0,21.81,0c7.21-7.2,8.79-19.15,17.09-25.66,10.2-8,25.8-8.89,37.71-12.69L445.33,177C459.52,172.84,460,153.06,446.2,148.15ZM158,244.33a15.44,15.44,0,0,1-21.85,0l-10.89-10.89a15.42,15.42,0,0,1,10.92-26.32,15.21,15.21,0,0,1,10.9,4.5L158,222.51A15.43,15.43,0,0,1,158,244.33Zm20.25-132.39a15.4,15.4,0,1,1,21.79-21.78l5.44,5.44a15.4,15.4,0,0,1-21.78,21.79Zm10.89,76.32a3.13,3.13,0,0,1-.47.42,15.4,15.4,0,0,1-21.35-.39L129.15,150.1a15.37,15.37,0,0,1-.39-21.34,2.71,2.71,0,0,1,.42-.47,15.43,15.43,0,0,1,21.78,0l38.19,38.18A15.42,15.42,0,0,1,189.15,188.26ZM249.1,161a15.44,15.44,0,0,1-21.79,0l-10.89-10.9a15.4,15.4,0,1,1,21.79-21.78l10.89,10.89A15.39,15.39,0,0,1,249.1,161Z"/><path class="cls-3" d="M272.72,315.46a15.42,15.42,0,0,0,0,21.79l8.67,8.68a15.41,15.41,0,1,0,21.79-21.79l-8.67-8.68a15.37,15.37,0,0,0-21.79,0Z"/><path class="cls-4" d="M379.62,247.44a15.42,15.42,0,0,0,0,21.79l8.67,8.67a15.41,15.41,0,1,0,21.79-21.79l-8.68-8.67a15.35,15.35,0,0,0-21.78,0Z"/><g class="cls-5"><path d="M190.65,186.5a14.56,14.56,0,0,1-1.5,1.76,3.13,3.13,0,0,1-.47.42,15.4,15.4,0,0,1-21.35-.39L129.15,150.1a15.37,15.37,0,0,1-.39-21.34,2.71,2.71,0,0,1,.42-.47,14.56,14.56,0,0,1,1.76-1.5L10,5.84a26.16,26.16,0,0,0-8.4,29.5L146.85,442.59c5.33,14.86,26.55,14.42,31.2-.71l13.55-43.76a26.42,26.42,0,0,1,43.91-10.86l7.08,7.08a15.41,15.41,0,1,0,21.79-21.79L214.85,323,178.23,286.4a15.43,15.43,0,0,1,21.82-21.82l25.1,25.11,7.91,7.9a15.17,15.17,0,0,0,10.89,4.5,15.4,15.4,0,0,0,10.89-26.29l-19.39-19.39-30-30a15.38,15.38,0,0,1-.41-21.37,3.83,3.83,0,0,1,.41-.48,16.43,16.43,0,0,1,1.77-1.49Zm-32.67,36a15.43,15.43,0,1,1-21.82,21.82l-10.89-10.89a15.42,15.42,0,0,1,10.92-26.32,15.21,15.21,0,0,1,10.9,4.5Z"/></g></g></g></g></svg>