<?xml version="1.0" encoding="utf-8"?>
<!-- Generator: Adobe Illustrator 23.0.1, SVG Export Plug-In . SVG Version: 6.00 Build 0)  -->
<svg version="1.1" id="Capa_1" xmlns="http://www.w3.org/2000/svg" xmlns:xlink="http://www.w3.org/1999/xlink" x="0px" y="0px"
	 viewBox="0 0 64 64" style="enable-background:new 0 0 64 64;" xml:space="preserve">
<style type="text/css">
	.st0{fill:url(#SVGID_1_);}
	.st1{fill:#FFFFFF;}
</style>
<g id="surface1">
	
		<linearGradient id="SVGID_1_" gradientUnits="userSpaceOnUse" x1="32" y1="-43.3333" x2="32" y2="7.8724" gradientTransform="matrix(1 0 0 1 0 50)">
		<stop  offset="0.43" style="stop-color:#00D6E6"/>
		<stop  offset="1" style="stop-color:#004EA3"/>
	</linearGradient>
	<path class="st0" d="M44,57H20c-7.2,0-13-5.8-13-13V20c0-7.2,5.8-13,13-13h24c7.2,0,13,5.8,13,13v24C57,51.2,51.2,57,44,57z M20,9
		C13.9,9,9,13.9,9,20v24c0,6.1,4.9,11,11,11h24c6.1,0,11-4.9,11-11V20c0-6.1-4.9-11-11-11H20z"/>
	<path class="st1" d="M32,45c-7.2,0-13-5.8-13-13s5.8-13,13-13s13,5.8,13,13S39.2,45,32,45z M32,23c-5,0-9,4-9,9s4,9,9,9s9-4,9-9
		S37,23,32,23z"/>
	<path class="st1" d="M49,18c0,1.7-1.3,3-3,3s-3-1.3-3-3s1.3-3,3-3S49,16.3,49,18z"/>
</g>
</svg>
