<?xml version="1.0" encoding="utf-8"?>
<!-- Generator: Adobe Illustrator 23.0.1, SVG Export Plug-In . SVG Version: 6.00 Build 0)  -->
<svg version="1.1" id="Capa_1" xmlns="http://www.w3.org/2000/svg" xmlns:xlink="http://www.w3.org/1999/xlink" x="0px" y="0px"
	 viewBox="0 0 64 64" style="enable-background:new 0 0 64 64;" xml:space="preserve">
<style type="text/css">
	.st0{fill-rule:evenodd;clip-rule:evenodd;fill:url(#SVGID_1_);}
	.st1{fill-rule:evenodd;clip-rule:evenodd;fill:url(#SVGID_2_);}
	.st2{fill-rule:evenodd;clip-rule:evenodd;fill:url(#SVGID_3_);}
	.st3{fill:url(#SVGID_4_);}
</style>
<g id="surface1">
	
		<linearGradient id="SVGID_1_" gradientUnits="userSpaceOnUse" x1="19" y1="41.1419" x2="19" y2="16.9585" gradientTransform="matrix(1 0 0 -1 0 66)">
		<stop  offset="0.43" style="stop-color:#00D6E6"/>
		<stop  offset="1" style="stop-color:#004EA3"/>
	</linearGradient>
	<path class="st0" d="M22,48V26h-6v22H22z"/>
	
		<linearGradient id="SVGID_2_" gradientUnits="userSpaceOnUse" x1="19.3809" y1="50.5774" x2="19.3809" y2="42.659" gradientTransform="matrix(1 0 0 -1 0 66)">
		<stop  offset="0.43" style="stop-color:#00D6E6"/>
		<stop  offset="1" style="stop-color:#004EA3"/>
	</linearGradient>
	<path class="st1" d="M19.4,23c2.5,0,4.1-1.5,4.1-3.6c0-2.1-1.6-3.6-4-3.6s-4.1,1.5-4.1,3.6C15.3,21.5,16.9,23,19.4,23L19.4,23z"/>
	
		<linearGradient id="SVGID_3_" gradientUnits="userSpaceOnUse" x1="37.3848" y1="51.875" x2="37.3848" y2="16.4755" gradientTransform="matrix(1 0 0 -1 0 66)">
		<stop  offset="0.43" style="stop-color:#00D6E6"/>
		<stop  offset="1" style="stop-color:#004EA3"/>
	</linearGradient>
	<path class="st2" d="M26.9,48H34V35.9c0-0.6,0.1-1.3,0.3-1.8c0.5-1.3,1.9-2.6,3.9-2.6c2.6,0,3.8,2,3.8,4.9V48h6V35.6
		c0-6.7-3.1-9.5-7.8-9.5c-3.9,0-5.1,1.9-6.1,3.9H34v-4h-7.1c0.1,2-0.2,22-0.2,22H26.9z"/>
	
		<linearGradient id="SVGID_4_" gradientUnits="userSpaceOnUse" x1="32" y1="59.5" x2="32" y2="8.4997" gradientTransform="matrix(1 0 0 -1 0 66)">
		<stop  offset="0.43" style="stop-color:#00D6E6"/>
		<stop  offset="1" style="stop-color:#004EA3"/>
	</linearGradient>
	<path class="st3" d="M50,57H14c-3.9,0-7-3.1-7-7V14c0-3.9,3.1-7,7-7h36c3.9,0,7,3.1,7,7v36C57,53.9,53.9,57,50,57z M14,9
		c-2.8,0-5,2.2-5,5v36c0,2.8,2.2,5,5,5h36c2.8,0,5-2.2,5-5V14c0-2.8-2.2-5-5-5H14z"/>
</g>
</svg>
