<svg xmlns="http://www.w3.org/2000/svg" xmlns:xlink="http://www.w3.org/1999/xlink" viewBox="0 0 574.36 186"><defs><style>.cls-1{isolation:isolate;}.cls-2{font-size:149.27px;fill:#fff;font-family:Oswald;}.cls-3{letter-spacing:-0.01em;}.cls-4{letter-spacing:0em;}.cls-5{letter-spacing:-0.01em;}.cls-6{letter-spacing:0em;}.cls-7{fill:url(#Degradado_sin_nombre_5);}.cls-8{fill:url(#Degradado_sin_nombre_5-2);}.cls-9{fill:url(#Degradado_sin_nombre_5-3);}.cls-10{opacity:0.15;mix-blend-mode:multiply;}</style><linearGradient id="Degradado_sin_nombre_5" x1="1537.1" y1="-1277.6" x2="1544.68" y2="-1101.42" gradientTransform="translate(1301.75 1636.09) rotate(-90)" gradientUnits="userSpaceOnUse"><stop offset="0" stop-color="#00d6e6"/><stop offset="1" stop-color="#004ea3"/></linearGradient><linearGradient id="Degradado_sin_nombre_5-2" x1="1524.41" y1="-1283.71" x2="1532.52" y2="-1095.24" xlink:href="#Degradado_sin_nombre_5"/><linearGradient id="Degradado_sin_nombre_5-3" x1="1573.2" y1="-1272.87" x2="1581.3" y2="-1084.39" xlink:href="#Degradado_sin_nombre_5"/></defs><title>Recurso 1</title><g class="cls-1"><g id="Capa_2" data-name="Capa 2"><g id="Capa_1-2" data-name="Capa 1"><text class="cls-2" transform="translate(214.37 139.94) scale(1.11 1)">a<tspan class="cls-3" x="67.2" y="0">r</tspan><tspan class="cls-4" x="115.08" y="0">r</tspan><tspan class="cls-5" x="164.06" y="0">o</tspan><tspan class="cls-6" x="232.06" y="0">w</tspan></text><path class="cls-7" d="M161.42,10.17,6,83.89a10.41,10.41,0,0,0,0,18.82l154.1,73.07a6.49,6.49,0,0,0,8.51-8.9l-8.43-16a10.42,10.42,0,0,1,9.22-15.28h3.94a6.09,6.09,0,0,0,6.1-6.07,6.09,6.09,0,0,0-6.1-6.08h-48a6.09,6.09,0,0,1,0-12.17h18.41a6,6,0,0,0,4.3-1.79,6.07,6.07,0,0,0-4.3-10.37H116.13a6.06,6.06,0,0,1-6.08-5.84,1.06,1.06,0,0,1,0-.25,6.11,6.11,0,0,1,6.1-6.08h76.15a6.09,6.09,0,0,0,0-12.17H119.16a6.08,6.08,0,1,1,0-12.15h26.76l.08-.16a5.57,5.57,0,0,0,1.3.15h4.84a6.08,6.08,0,0,0,6.09-6.07c0-4-2.89-7.79-2.38-11.93.61-5.06,4.71-9.67,7-14l6.4-12.14A6,6,0,0,0,161.42,10.17ZM107.87,117.38a6.08,6.08,0,0,1-6.09,6.09H95.7a6.08,6.08,0,0,1-4.29-10.39,6,6,0,0,1,4.29-1.78h6.08A6.09,6.09,0,0,1,107.87,117.38ZM76.59,74.8a6.08,6.08,0,1,1,0-12.15h3a6.08,6.08,0,1,1,0,12.15Zm24.33,18.25a1.06,1.06,0,0,1,0,.25,6.07,6.07,0,0,1-6.06,5.84H73.54a6.06,6.06,0,0,1-6.06-5.84,1.06,1.06,0,0,1,0-.25A6.09,6.09,0,0,1,73.54,87h21.3A6.09,6.09,0,0,1,100.92,93.05ZM110,68.73A6.08,6.08,0,0,1,104,74.8H97.88a6.08,6.08,0,1,1,0-12.15H104A6.07,6.07,0,0,1,110,68.73Z"/><path class="cls-8" d="M159.7,105.22a6.08,6.08,0,0,0,6.08,6.08h4.84a6.08,6.08,0,1,0,0-12.16h-4.84a6.06,6.06,0,0,0-6.08,6.08Z"/><path class="cls-9" d="M170.54,56.43a6.08,6.08,0,0,0,6.08,6.08h4.84a6.08,6.08,0,1,0,0-12.15h-4.84a6,6,0,0,0-6.08,6.07Z"/><g class="cls-10"><path d="M100.84,92.14a5.5,5.5,0,0,1,.08.91,1.06,1.06,0,0,1,0,.25,6.07,6.07,0,0,1-6.06,5.84H73.54a6.06,6.06,0,0,1-6.06-5.84,1.06,1.06,0,0,1,0-.25,5.5,5.5,0,0,1,.08-.91H.07A10.32,10.32,0,0,0,6,102.71l154.1,73.07a6.49,6.49,0,0,0,8.51-8.9l-8.43-16a10.42,10.42,0,0,1,9.22-15.28h3.94a6.09,6.09,0,0,0,6.1-6.07,6.09,6.09,0,0,0-6.1-6.08h-48a6.09,6.09,0,0,1,0-12.17h18.41a6,6,0,0,0,4.3-1.79,6.07,6.07,0,0,0-4.3-10.37H116.13a6.06,6.06,0,0,1-6.08-5.84,1.06,1.06,0,0,1,0-.25,5.5,5.5,0,0,1,.08-.91Zm.94,19.16a6.09,6.09,0,1,1,0,12.17H95.7a6.08,6.08,0,0,1-4.29-10.39,6,6,0,0,1,4.29-1.78Z"/></g></g></g></g></svg>