<svg xmlns="http://www.w3.org/2000/svg" xmlns:xlink="http://www.w3.org/1999/xlink" viewBox="0 0 300.07 490.8"><defs><style>.cls-1{isolation:isolate;}.cls-2{font-size:124.39px;fill:#fff;font-family:Oswald;}.cls-3{letter-spacing:-0.01em;}.cls-4{letter-spacing:0em;}.cls-5{letter-spacing:-0.01em;}.cls-6{fill:url(#Degradado_sin_nombre_5);}.cls-7{fill:url(#Degradado_sin_nombre_5-2);}.cls-8{fill:url(#Degradado_sin_nombre_5-3);}.cls-9{opacity:0.15;mix-blend-mode:multiply;}</style><linearGradient id="Degradado_sin_nombre_5" x1="228.63" y1="209.68" x2="242.25" y2="526.5" gradientTransform="translate(-89.37 -166.25)" gradientUnits="userSpaceOnUse"><stop offset="0" stop-color="#00d6e6"/><stop offset="1" stop-color="#004ea3"/></linearGradient><linearGradient id="Degradado_sin_nombre_5-2" x1="205.81" y1="198.69" x2="220.39" y2="537.63" xlink:href="#Degradado_sin_nombre_5"/><linearGradient id="Degradado_sin_nombre_5-3" x1="293.54" y1="218.19" x2="308.12" y2="557.13" xlink:href="#Degradado_sin_nombre_5"/></defs><title>Recurso 2</title><g class="cls-1"><g id="Capa_2" data-name="Capa 2"><g id="Capa_1-2" data-name="Capa 1"><text class="cls-2" transform="translate(0.04 452.42) scale(1.11 1)">a<tspan class="cls-3" x="56" y="0">r</tspan><tspan class="cls-4" x="95.91" y="0">r</tspan><tspan class="cls-5" x="136.72" y="0">o</tspan><tspan x="193.39" y="0">w</tspan></text><path class="cls-6" d="M299,290.29,166.43,10.71a18.74,18.74,0,0,0-33.86,0L1.16,287.83c-4.78,10.12,6.09,20.55,16,15.29L45.91,288a18.74,18.74,0,0,1,27.48,16.57v7.1a10.93,10.93,0,1,0,21.85,0V225.23a10.95,10.95,0,0,1,21.89,0v33.11a11,11,0,0,0,10.93,10.93A10.92,10.92,0,0,0,139,258.34V208.83a10.91,10.91,0,0,1,10.52-10.92,2.17,2.17,0,0,1,.44,0,10.77,10.77,0,0,1,7.72,3.2,10.92,10.92,0,0,1,3.21,7.75v137a10.91,10.91,0,0,0,3.21,7.73,10.77,10.77,0,0,0,7.72,3.2,10.94,10.94,0,0,0,11-10.93V214.3a10.93,10.93,0,1,1,21.85,0v48.11l.29.15a10.55,10.55,0,0,0-.27,2.34v8.7a11,11,0,0,0,10.92,11c7.23,0,14-5.2,21.44-4.3,9.12,1.11,17.4,8.48,25.28,12.55l21.83,11.5C293.29,309.35,303.44,299.67,299,290.29ZM106.2,194a11,11,0,0,1-11-11V172.1a10.94,10.94,0,0,1,18.68-7.72,10.78,10.78,0,0,1,3.21,7.72V183A10.94,10.94,0,0,1,106.2,194Zm76.56-56.25a10.93,10.93,0,1,1,21.85,0v5.47a10.93,10.93,0,0,1-21.85,0Zm-32.82,43.74a2.17,2.17,0,0,1-.44,0A10.9,10.9,0,0,1,139,170.56V132.25a10.92,10.92,0,0,1,10.52-10.9,2.17,2.17,0,0,1,.44,0,11,11,0,0,1,10.93,10.93v38.31A10.94,10.94,0,0,1,149.94,181.48Zm43.75,16.4A10.94,10.94,0,0,1,182.76,187V176a10.93,10.93,0,1,1,21.85,0V187A10.92,10.92,0,0,1,193.69,197.88Z"/><path class="cls-7" d="M128.06,287.2a10.94,10.94,0,0,0-10.93,10.92v8.71a10.93,10.93,0,1,0,21.85,0v-8.71a10.87,10.87,0,0,0-10.92-10.92Z"/><path class="cls-8" d="M215.79,306.69a10.94,10.94,0,0,0-10.93,10.93v8.7a10.93,10.93,0,1,0,21.86,0v-8.7a10.91,10.91,0,0,0-10.93-10.93Z"/><g class="cls-9"><path d="M151.58,181.35a11.11,11.11,0,0,1-1.64.13,2.17,2.17,0,0,1-.44,0A10.9,10.9,0,0,1,139,170.56V132.25a10.92,10.92,0,0,1,10.52-10.9,2.17,2.17,0,0,1,.44,0,11.11,11.11,0,0,1,1.64.13V.12a18.56,18.56,0,0,0-19,10.59L1.16,287.83c-4.78,10.12,6.09,20.55,16,15.29L45.91,288a18.74,18.74,0,0,1,27.48,16.57v7.1a10.93,10.93,0,1,0,21.85,0V225.23a10.95,10.95,0,0,1,21.89,0v33.11a11,11,0,0,0,10.93,10.93A10.92,10.92,0,0,0,139,258.34V208.83a10.91,10.91,0,0,1,10.52-10.92,2.17,2.17,0,0,1,.44,0,11.11,11.11,0,0,1,1.64.13ZM117.13,183a10.95,10.95,0,1,1-21.89,0V172.1a10.94,10.94,0,0,1,18.68-7.72,10.78,10.78,0,0,1,3.21,7.72Z"/></g></g></g></g></svg>