<?xml version="1.0" encoding="utf-8"?>
<!-- Generator: Adobe Illustrator 23.0.1, SVG Export Plug-In . SVG Version: 6.00 Build 0)  -->
<svg version="1.1" id="Capa_1" xmlns="http://www.w3.org/2000/svg" xmlns:xlink="http://www.w3.org/1999/xlink" x="0px" y="0px"
	 viewBox="0 0 52 52" style="enable-background:new 0 0 52 52;" xml:space="preserve">
<style type="text/css">
	.st0{fill:url(#SVGID_1_);}
	.st1{fill:#FFFFFF;}
</style>
<title>menu</title>
<g id="surface1">
	
		<linearGradient id="SVGID_1_" gradientUnits="userSpaceOnUse" x1="32" y1="451.33" x2="32" y2="505.87" gradientTransform="matrix(1 0 0 1 -6 -452)">
		<stop  offset="0.43" style="stop-color:#00D6E6"/>
		<stop  offset="1" style="stop-color:#004EFF"/>
	</linearGradient>
	<path class="st0" d="M26,52C11.6,52,0,40.4,0,26S11.6,0,26,0s26,11.6,26,26S40.4,52,26,52z M26,2C12.7,2,2,12.7,2,26s10.7,24,24,24
		s24-10.7,24-24S39.3,2,26,2z"/>
	<path class="st1" d="M36,19c0,0.6-0.4,1-1,1H17c-0.6,0-1-0.4-1-1v-2c0-0.6,0.4-1,1-1h18c0.6,0,1,0.4,1,1V19z"/>
	<path class="st1" d="M36,27c0,0.6-0.4,1-1,1H17c-0.6,0-1-0.4-1-1v-2c0-0.6,0.4-1,1-1h18c0.6,0,1,0.4,1,1V27z"/>
	<path class="st1" d="M36,35c0,0.6-0.4,1-1,1H17c-0.6,0-1-0.4-1-1v-2c0-0.6,0.4-1,1-1h18c0.6,0,1,0.4,1,1V35z"/>
</g>
</svg>
