<svg id="Capa_1" data-name="Capa 1" xmlns="http://www.w3.org/2000/svg" xmlns:xlink="http://www.w3.org/1999/xlink" viewBox="0 0 52 52"><defs><style>.cls-1{fill:url(#Degradado_sin_nombre_28);}.cls-2{fill:url(#Degradado_sin_nombre_28-2);}.cls-3{fill:url(#Degradado_sin_nombre_28-3);}.cls-4{fill:url(#Degradado_sin_nombre_28-4);}</style><linearGradient id="Degradado_sin_nombre_28" x1="32" y1="60.67" x2="32" y2="6.13" gradientTransform="matrix(1, 0, 0, -1, 0, 66)" gradientUnits="userSpaceOnUse"><stop offset="0.43" stop-color="#00d6e6"/><stop offset="1" stop-color="#004ea3"/></linearGradient><linearGradient id="Degradado_sin_nombre_28-2" y1="32.43" y2="17.3" gradientTransform="matrix(1, 0, 0, 1, 0, 0)" xlink:href="#Degradado_sin_nombre_28"/><linearGradient id="Degradado_sin_nombre_28-3" y1="40.43" y2="25.3" gradientTransform="matrix(1, 0, 0, 1, 0, 0)" xlink:href="#Degradado_sin_nombre_28"/><linearGradient id="Degradado_sin_nombre_28-4" y1="48.43" y2="33.3" gradientTransform="matrix(1, 0, 0, 1, 0, 0)" xlink:href="#Degradado_sin_nombre_28"/></defs><title>menu</title><g id="surface1"><path class="cls-1" d="M32,58A26,26,0,1,1,58,32,26,26,0,0,1,32,58ZM32,8A24,24,0,1,0,56,32,24,24,0,0,0,32,8Z" transform="translate(-6 -6)"/><path class="cls-2" d="M42,25a1,1,0,0,1-1,1H23a1,1,0,0,1-1-1V23a1,1,0,0,1,1-1H41a1,1,0,0,1,1,1Z" transform="translate(-6 -6)"/><path class="cls-3" d="M42,33a1,1,0,0,1-1,1H23a1,1,0,0,1-1-1V31a1,1,0,0,1,1-1H41a1,1,0,0,1,1,1Z" transform="translate(-6 -6)"/><path class="cls-4" d="M42,41a1,1,0,0,1-1,1H23a1,1,0,0,1-1-1V39a1,1,0,0,1,1-1H41a1,1,0,0,1,1,1Z" transform="translate(-6 -6)"/></g></svg>